<svg xmlns="http://www.w3.org/2000/svg" width="195" height="193" fill="none" viewBox="0 0 195 193">
  <path fill="#221D42" fill-opacity=".38" d="M97.83 189.66c51.269 0 92.83-41.561 92.83-92.83S149.099 4 97.83 4 5 45.561 5 96.83s41.561 92.83 92.83 92.83z" opacity=".8"/>
  <path fill="#6F668E" fill-opacity=".41" d="M97.83 160.68c35.263 0 63.85-28.587 63.85-63.85 0-35.263-28.587-63.85-63.85-63.85-35.263 0-63.85 28.587-63.85 63.85 0 35.263 28.587 63.85 63.85 63.85z" opacity=".8"/>
  <path fill="#9188A8" fill-opacity=".47" d="M99.1 143.35c25.692 0 46.52-20.828 46.52-46.52 0-25.692-20.828-46.52-46.52-46.52-25.692 0-46.52 20.828-46.52 46.52 0 25.692 20.828 46.52 46.52 46.52z" opacity=".8"/>
  <path fill="#2A2664" d="M97.83 127.14c16.74 0 30.31-13.57 30.31-30.31s-13.57-30.31-30.31-30.31-30.31 13.57-30.31 30.31 13.57 30.31 30.31 30.31z" opacity=".8"/>
  <path stroke="#A59EBF" stroke-width="2" d="M9 99H0M99 0v9M195 99h-9M99 184v9"/>
</svg>
