<svg xmlns="http://www.w3.org/2000/svg" width="204" height="105" fill="none" viewBox="0 0 204 105">
  <g filter="url(#filter0_f_15_69)">
    <path fill="#322D67" d="M23 52.5C23 40.074 33.074 30 45.5 30h106c12.426 0 22.5 10.074 22.5 22.5S163.926 75 151.5 75h-106C33.074 75 23 64.926 23 52.5z"/>
  </g>
  <path fill="#fff" d="M31 37c0-13.255 10.745-24 24-24h83c13.255 0 24 10.745 24 24v3c0 13.255-10.745 24-24 24H55c-13.255 0-24-10.745-24-24v-3z"/>
  <path fill="#33365B" d="M67.318 45V32.115h5.476c1.377 0 2.376.117 2.997.352.627.228 1.128.639 1.503 1.23.375.592.562 1.269.562 2.03 0 .967-.284 1.767-.852 2.4-.569.627-1.418 1.022-2.549 1.186.563.329 1.026.689 1.389 1.081.369.393.864 1.09 1.485 2.092L78.902 45h-3.111l-1.88-2.804c-.669-1.002-1.126-1.631-1.372-1.89-.246-.263-.507-.442-.782-.535-.276-.1-.712-.15-1.31-.15h-.527V45h-2.602zm2.602-7.435h1.925c1.248 0 2.027-.053 2.338-.159a1.4 1.4 0 00.73-.545c.175-.258.263-.58.263-.966 0-.434-.117-.783-.352-1.046-.228-.27-.553-.44-.975-.51-.211-.03-.844-.044-1.899-.044h-2.03v3.27zM80.317 45V32.115h9.554v2.18H82.92v2.856h6.469v2.171h-6.47v3.507h7.2V45h-9.8zm11.347-4.192l2.531-.246c.153.85.46 1.473.923 1.872.469.398 1.099.597 1.89.597.838 0 1.468-.175 1.89-.527.427-.357.641-.773.641-1.248 0-.305-.09-.563-.272-.774-.176-.216-.487-.404-.932-.562-.305-.105-1-.293-2.083-.563-1.395-.345-2.373-.77-2.936-1.274-.79-.709-1.186-1.573-1.186-2.593 0-.656.184-1.268.554-1.837.375-.574.91-1.01 1.608-1.31.703-.298 1.55-.448 2.54-.448 1.617 0 2.833.355 3.647 1.064.821.709 1.251 1.655 1.292 2.839l-2.601.114c-.111-.662-.352-1.137-.72-1.424-.364-.293-.912-.44-1.644-.44-.756 0-1.348.156-1.776.467a.939.939 0 00-.413.8c0 .304.13.565.387.782.328.275 1.125.562 2.39.861 1.266.299 2.2.61 2.804.932.61.316 1.084.753 1.424 1.31.346.55.519 1.233.519 2.047 0 .738-.205 1.43-.616 2.074-.41.645-.99 1.125-1.74 1.442-.75.31-1.684.465-2.804.465-1.628 0-2.88-.375-3.752-1.125-.873-.755-1.395-1.854-1.565-3.295zM104.33 45V32.115h9.554v2.18h-6.952v2.856h6.468v2.171h-6.468v3.507h7.198V45h-9.8zm14.906 0V34.295h-3.823v-2.18h10.239v2.18h-3.814V45h-2.602z"/>
  <defs>
    <filter id="filter0_f_15_69" width="211" height="105" x="-7" y="0" color-interpolation-filters="sRGB" filterUnits="userSpaceOnUse">
      <feFlood flood-opacity="0" result="BackgroundImageFix"/>
      <feBlend in="SourceGraphic" in2="BackgroundImageFix" result="shape"/>
      <feGaussianBlur result="effect1_foregroundBlur_15_69" stdDeviation="15"/>
    </filter>
  </defs>
</svg>
